# Alias OBJ Model File
# Exported from SketchUp, (c) 2000-2006 Google, Inc.
# File units = meters

mtllib model4insidepath.mtl

g Mesh1 Group1 Model

usemtl FrontColor
v 75.5049 -2.61765e-016 154.157
vt -399.552 3126.89
vn 2.73142e-017 -1 -1.98496e-018
v 80.5049 -1.58153e-016 233.58
vt -596.402 -8.84117e-033
v 75.5049 -4.58792e-016 233.58
vt -399.552 1.81899e-012
f 1/1/1 2/2/1 3/3/1

v 80.5049 -7.90767e-017 154.157
vt -596.402 3126.89
f 2/2/1 1/1/1 4/4/1

usemtl Stone_Masonry_Multi
vt -63.2475 -287.376
vn -2.73142e-017 1 1.98496e-018
vt -67.4358 -287.376
vt -63.2475 -189.661
f 3/5/2 2/6/2 1/7/2

vt -67.4358 -189.661
f 4/8/2 1/7/2 2/6/2

g Mesh2 Group1 Model

usemtl FrontColor
v 70.3563 0 124.87
vt -196.85 4279.9
vn 0 -1 -0
v 65.3563 0 139.87
vt -9.09495e-013 3689.35
v 65.3563 0 124.87
vt 0 4279.9
f 5/9/3 6/10/3 7/11/3

v 70.3563 0 139.87
vt -196.85 3689.35
f 6/10/3 5/9/3 8/12/3

usemtl Stone_Masonry_Multi
vt -54.7464 -153.629
vn -0 1 0
vt -54.7464 -172.084
vt -58.9347 -153.629
f 7/13/4 6/14/4 5/15/4

vt -58.9347 -172.084
f 8/16/4 5/15/4 6/14/4

usemtl FrontColor
v 70.3563 0 132.37
vt -196.85 3984.63
f 8/12/3 5/9/3 9/17/3

usemtl Stone_Masonry_Multi
vt -58.9347 -162.857
f 9/18/4 5/15/4 8/16/4

usemtl FrontColor
v 70.3563 0 127.37
vt -196.85 4181.48
f 9/17/3 5/9/3 10/19/3

usemtl Stone_Masonry_Multi
vt -58.9347 -156.705
f 10/20/4 5/15/4 9/18/4

usemtl FrontColor
v 183.353 0 132.37
vt -4645.56 3984.63
f 9/17/3 10/19/3 11/21/3

usemtl Stone_Masonry_Multi
vt -153.588 -162.857
f 11/22/4 10/20/4 9/18/4

usemtl FrontColor
v 183.353 0 127.37
vt -4645.56 4181.48
f 11/21/3 10/19/3 12/23/3

usemtl Stone_Masonry_Multi
vt -153.588 -156.705
f 12/24/4 10/20/4 11/22/4

g Mesh3 Group1 Model

usemtl FrontColor
v 70.3563 0 29.4867
vt -196.85 8035.16
v 65.3563 0 108.756
vt -1.36424e-012 4914.31
v 65.3563 0 29.4867
vt -4.54747e-013 8035.16
f 13/25/3 14/26/3 15/27/3

v 70.3563 0 108.756
vt -196.85 4914.31
f 14/26/3 13/25/3 16/28/3

usemtl Stone_Masonry_Multi
vt -54.7464 -36.2779
vt -54.7464 -133.804
vt -58.9347 -36.2779
f 15/29/4 14/30/4 13/31/4

vt -58.9347 -133.804
f 16/32/4 13/31/4 14/30/4

g Mesh4 Group1 Model

l 3 1

l 3 2

l 4 2

l 4 1

g Mesh5 Group1 Model

l 9 8

l 9 11

l 11 12

l 10 12

l 5 10

l 7 5

l 6 7

l 6 8

g Mesh6 Group1 Model

l 13 16

l 13 15

l 14 15

l 16 14

