# Alias OBJ Model File
# Exported from SketchUp, (c) 2000-2006 Google, Inc.
# File units = meters

mtllib model8buildingtexturageam.mtl

g Mesh1 Group1 Model

usemtl perete_modern
v 100.547 10 66.4731
vt 18.2368 2.85714
vn -1 0 -4.71845e-016
v 100.547 -5.77529e-015 81.4731
vt 22.352 -1.65008e-015
v 100.547 10 81.4731
vt 22.352 2.85714
f 1/1/1 2/2/1 3/3/1

v 100.547 -5.77529e-015 66.4731
vt 18.2368 -1.65008e-015
f 2/2/1 1/1/1 4/4/1

vn 1 -0 4.71845e-016
f 3/3/2 2/2/2 1/1/2

v 146.353 0 81.4731
vt 40.1518 9.86076e-031
vn -2.52162e-015 -4.21459e-032 1
vt 27.585 2.85714
vt 27.585 -1.65008e-015
f 5/5/3 3/6/3 2/7/3

v 146.353 10 81.4731
vt 40.1518 2.85714
f 3/6/3 5/5/3 6/8/3

vn 2.52162e-015 4.21459e-032 -1
f 2/7/4 3/6/4 5/5/4

f 6/8/4 5/5/4 3/6/4

vt 22.352 -1.27078e-014
vn -1 -3.03902e-016 -8.62491e-015
v 146.353 0 112.473
vt 30.8568 -1.27078e-014
vt 22.352 2.85714
f 5/9/5 7/10/5 6/11/5

vn 1 3.03902e-016 8.62491e-015
f 6/11/6 7/10/6 5/9/6

v 146.353 28 79.4731
vt 21.8033 8
f 7/10/5 8/12/5 6/11/5

v 146.353 28 112.473
vt 30.8568 8
f 8/12/5 7/10/5 9/13/5

f 9/13/6 7/10/6 8/12/6

f 6/11/6 8/12/6 7/10/6

v 146.353 10 79.4731
vt 21.8033 2.85714
f 6/11/5 8/12/5 10/14/5

f 10/14/6 8/12/6 6/11/6

f 4/4/2 1/1/2 2/2/2

vt -10.8874 3.85714
vn 4.71845e-016 0 -1
v 155.547 -5.77529e-015 66.4731
vt -25.9765 1
vt -10.8874 1
f 1/15/7 11/16/7 4/17/7

v 155.547 10 66.4731
vt -25.9765 3.85714
f 11/16/7 1/15/7 12/18/7

vt -27.585 -1.65008e-015
vn -4.71845e-016 -0 1
vt -42.6742 -1.65008e-015
vt -27.585 2.85714
f 4/19/8 11/20/8 1/21/8

vt -42.6742 2.85714
f 12/22/8 1/21/8 11/20/8

v 155.547 10 81.4731
vt -22.352 2.85714
vn 1 -1.4824e-031 9.86733e-016
vt -18.2368 -1.65008e-015
vt -18.2368 2.85714
f 13/23/9 11/24/9 12/25/9

v 155.547 -5.77529e-015 81.4731
vt -22.352 -1.65008e-015
f 11/24/9 13/23/9 14/26/9

vn -1 1.4824e-031 -9.86733e-016
f 14/26/10 13/23/10 11/24/10

f 12/25/10 11/24/10 13/23/10

g Mesh2 Group1 Model

v 160.665 -5.77529e-015 79.4731
vt -58.9465 5
vn 1 9.51428e-016 6.76398e-015
v 160.665 28 112.473
vt -68 13
v 160.665 -5.77529e-015 112.473
vt -68 5
f 15/27/11 16/28/11 17/29/11

v 160.665 28 79.4731
vt -58.9465 13
f 16/28/11 15/27/11 18/30/11

vt -30.8568 -4.53247e-014
vn -1 -9.51428e-016 -6.76398e-015
vt -30.8568 8
vt -21.8033 -4.53247e-014
f 17/31/12 16/32/12 15/33/12

vt -21.8033 8
f 18/34/12 15/33/12 16/32/12

g Mesh3 Group1 Model

l 9 8

l 7 9

l 7 5

l 2 5

l 2 3

l 4 2

l 11 4

l 11 12

l 14 11

l 14 13

l 13 12

l 12 1

l 4 1

l 1 3

l 3 6

l 5 6

l 10 6

l 10 8

g Mesh4 Group1 Model

l 15 18

l 15 17

l 17 16

l 18 16

