# Alias OBJ Model File
# Exported from SketchUp, (c) 2000-2006 Google, Inc.
# File units = meters

mtllib model13texturiperetilaterali.mtl

g Mesh1 Model

usemtl Block
v 120.645 0 87.7641
vt -16.7282 0
vn 1 0 4.71845e-016
v 120.645 9 109.764
vt -21 1
v 120.645 0 109.764
vt -21 0
f 1/1/1 2/2/1 3/3/1

v 120.645 9 87.7641
vt -16.7282 1
f 2/2/1 1/1/1 4/4/1

vt -21.3134 0
vn -1 -0 -4.71845e-016
vt -21.3134 1
vt -17.0416 0
f 3/5/2 2/6/2 1/7/2

vt 24.1845 1
vn -4.71845e-016 0 1
v 83.6447 0 109.764
vt 17 0
vt 24.1845 0
f 2/8/3 5/9/3 3/10/3

v 83.6447 9 109.764
vt 17 1
f 5/9/3 2/8/3 6/11/3

vt 23.4262 0
vn 4.71845e-016 -0 -1
vt 16.2417 0
vt 23.4262 1
f 3/12/4 5/13/4 2/14/4

vt 16.2417 1
f 6/15/4 2/14/4 5/13/4

v 83.6447 9 87.7641
vt 17.0416 1
vn -1 -5.13359e-016 -2.27987e-015
vt 21.3134 -4.77109e-015
vt 21.3134 1
f 7/16/5 5/17/5 6/18/5

v 83.6447 0 87.7641
vt 17.0416 -4.77109e-015
f 5/17/5 7/16/5 8/19/5

vn 1 5.13359e-016 2.27987e-015
f 6/18/6 5/17/6 7/16/6

f 8/19/6 7/16/6 5/17/6

vt -15.8155 1
vn 4.71845e-016 0 -1
vt -23 0
vt -15.8155 0
f 7/20/7 1/21/7 8/22/7

vt -23 1
f 1/21/7 7/20/7 4/23/7

vt -16.2417 0
vn -4.71845e-016 -0 1
vt -23.4262 0
vt -16.2417 1
f 8/24/8 1/25/8 7/26/8

vt -23.4262 1
f 4/27/8 7/26/8 1/25/8

vt -17.0416 1
f 4/28/2 1/7/2 2/6/2

g Mesh2 Model

v 98.9589 9 10.7008
vt 2 1
vn -1 -9.2208e-016 -3.44597e-016
v 98.9589 0 46.7008
vt 8.99029 1.57772e-030
v 98.9589 9 46.7008
vt 8.99029 1
f 9/29/9 10/30/9 11/31/9

v 98.9589 0 10.7008
vt 2 0
f 10/30/9 9/29/9 12/32/9

vt 9.06811 1
vn 1 9.2208e-016 3.44597e-016
vt 9.06811 -1.01387e-014
vt 2.07782 1
f 11/33/10 10/34/10 9/35/10

vt 20 0
v 134.959 9 46.7008
vt 26.9903 1
vt 20 1
f 10/36/3 13/37/3 11/38/3

v 134.959 0 46.7008
vt 26.9903 0
f 13/37/3 10/36/3 14/39/3

vt 26.2056 0
vt 19.2153 0
vt 26.2056 1
f 14/40/4 10/41/4 13/42/4

vt 19.2153 1
f 11/43/4 13/42/4 10/41/4

v 134.959 0 10.7008
vt -0.00970874 0
vt -7 1
vt -7 0
f 15/44/1 13/45/1 14/46/1

v 134.959 9 10.7008
vt -0.00970874 1
f 13/45/1 15/44/1 16/47/1

vt -9.06811 0
vt -9.06811 1
vt -2.07782 0
f 14/48/2 13/49/2 15/50/2

vt -2.07782 1
f 16/51/2 15/50/2 13/49/2

vt -29.9903 0
vt -23 1
vt -29.9903 1
f 15/52/7 9/53/7 16/54/7

vt -23 0
f 9/53/7 15/52/7 12/55/7

vt -19.2153 0
vt -26.2056 0
vt -19.2153 1
f 12/56/8 15/57/8 9/58/8

vt -26.2056 1
f 16/59/8 9/58/8 15/57/8

vt 2.07782 -1.01387e-014
f 12/60/10 9/35/10 10/34/10

g Mesh3 Model

v 52.9296 9 186.698
vt 34.8871 1
vn -1 0 1.0615e-015
v 52.9296 -4.40032e-016 197.58
vt 37 8.66668e-033
v 52.9296 9 197.58
vt 37 1
f 17/61/11 18/62/11 19/63/11

v 52.9296 0 186.698
vt 34.8871 4.6272e-017
f 18/62/11 17/61/11 20/64/11

vt 38.365 1
vn 1 -0 -1.0615e-015
vt 38.365 -4.88925e-017
vt 36.2521 1
f 19/65/12 18/66/12 17/67/12

vt 10.2776 -4.88925e-017
vn 0 0 1
v 71.1289 9 197.58
vt 13.8114 1
vt 10.2776 1
f 18/68/13 21/69/13 19/70/13

v 71.1289 -5.77529e-015 197.58
vt 13.8114 -6.41699e-016
f 21/69/13 18/68/13 22/71/13

vn -0 -0 -1
f 22/71/14 18/68/14 21/69/14

f 19/70/14 21/69/14 18/68/14

v 71.1289 -7.22111e-016 220.272
vt 43.4063 5.61465e-016
vn -1 1.22796e-031 -1.52703e-015
vt 39 1
vt 39 0
f 23/72/15 21/73/15 22/74/15

v 71.1289 9 220.272
vt 43.4063 1
f 21/73/15 23/72/15 24/75/15

vt 42.7712 1
vn 1 -1.22796e-031 1.52703e-015
vt 42.7712 -8.02345e-017
vt 38.365 1
f 24/76/16 23/77/16 21/78/16

v 59.864 3.17621e-015 220.272
vt -10.8126 4.30006e-016
vn 0 0 -1
vt -13 1
vt -13 -1.2326e-032
f 25/79/17 24/80/17 23/81/17

v 59.864 9 220.272
vt -10.8126 1
f 24/80/17 25/79/17 26/82/17

vt -13.8114 -8.02345e-017
vn -0 -0 1
vt -13.8114 1
vt -11.6241 3.52912e-016
f 23/83/18 24/84/18 25/85/18

v 71.1289 -7.22111e-016 233.58
vt 45.3553 -8.02345e-017
vn -1 0 -0
vt 42.7712 1
vt 42.7712 -8.02345e-017
f 27/86/19 24/87/19 23/88/19

v 71.1289 9 233.58
vt 45.3553 1
f 24/87/19 27/86/19 28/89/19

vn 1 -0 0
f 28/89/20 27/86/20 24/87/20

vt 10.0097 5.60033e-016
vn 6.90052e-016 3.42374e-015 1
v 75.5049 3 233.58
vt 10.8594 0.333333
vt 10.0097 1
f 27/90/21 29/91/21 28/92/21

v 75.5049 -5.57795e-015 233.58
vt 10.8594 2.06691e-017
f 29/91/21 27/90/21 30/93/21

vt 14.6611 -8.94772e-014
vn -6.90052e-016 -3.42374e-015 -1
vt 13.8114 -8.89376e-014
vt 14.6611 0.333333
f 30/94/22 27/95/22 29/96/22

vt 13.8114 1
f 28/97/22 29/96/22 27/95/22

v 107.129 9 233.58
f 28/92/21 29/91/21 31/11/21

vt 20.8017 1
f 31/98/22 29/96/22 28/97/22

v 80.5049 3 233.58
vt 11.8303 0.333333
f 32/99/21 31/11/21 29/91/21

v 80.5049 -5.41434e-015 233.58
vt 11.8303 3.90475e-017
f 33/100/21 31/11/21 32/99/21

v 107.129 -5.77529e-015 233.58
f 31/11/21 33/100/21 34/9/21

vt 20.8017 -8.94991e-014
vt 15.632 -8.9459e-014
f 34/101/22 33/102/22 31/98/22

vt 15.632 0.333333
f 32/103/22 31/98/22 33/102/22

f 29/96/22 31/98/22 32/103/22

v 107.129 -5.77529e-015 197.58
vt -42 0
vt -48.9903 1
vt -48.9903 0
f 35/104/1 31/105/1 34/106/1

v 107.129 9 197.58
vt -42 1
f 31/105/1 35/104/1 36/107/1

vt -45.3553 -6.41699e-016
vt -45.3553 1
vt -38.365 -6.41699e-016
f 34/108/2 31/109/2 35/110/2

vt -38.365 1
f 36/111/2 35/110/2 31/109/2

v 88.9296 -4.40032e-016 197.58
vt -17.4662 5.92807e-016
vt -21 1
vt -21 0
f 37/112/17 36/113/17 35/114/17

v 88.9296 9 197.58
vt -17.4662 1
f 36/113/17 37/112/17 38/115/17

vt -20.8017 -6.41699e-016
vt -20.8017 1
vt -17.2679 -4.88925e-017
f 35/116/18 36/117/18 37/118/18

vt -17.2679 1
f 38/119/18 37/118/18 36/117/18

v 88.9296 0 154.157
vt -35 2.46519e-032
vn 1 0 -0
vt -43.4316 1
vt -43.4316 -1.54707e-017
f 39/120/23 38/121/23 37/122/23

v 88.9296 9 154.157
vt -35 1
f 38/121/23 39/120/23 40/123/23

vt -38.365 -4.88925e-017
vn -1 -0 0
vt -38.365 1
vt -29.9333 0
f 37/124/24 38/125/24 39/126/24

vt 17.2679 1
vn -1.29106e-015 -4.96502e-016 1
v 80.5049 -4.40032e-016 197.58
vt 15.632 1.0851e-014
vt 17.2679 1.0851e-014
f 38/127/25 41/128/25 37/129/25

v 80.5049 3 197.58
vt 15.632 0.333333
f 41/128/25 38/127/25 42/130/25

vn 1.29106e-015 4.96502e-016 -1
f 37/129/26 41/128/26 38/127/26

f 42/130/26 38/127/26 41/128/26

v 75.5049 3 197.58
vt 14.6611 0.333333
f 42/130/25 38/127/25 43/131/25

f 43/131/26 38/127/26 42/130/26

vt 13.8114 1
f 43/131/25 38/127/25 21/132/25

f 21/132/26 38/127/26 43/131/26

v 75.5049 -4.40032e-016 197.58
vt 14.6611 1.0851e-014
f 21/132/25 44/133/25 43/131/25

vt 13.8114 1.02582e-014
f 44/133/25 21/132/25 22/134/25

f 22/134/26 21/132/26 44/133/26

vt 38.365 -6.41699e-016
f 22/135/16 21/78/16 23/77/16

f 43/131/26 44/133/26 21/132/26

vt -29.9333 1
f 40/136/24 39/126/24 38/125/24

vt -17 0
v 80.5049 3 154.157
vt -15.3641 0.333333
vt -17 1
f 39/137/7 45/138/7 40/139/7

v 80.5049 0 154.157
vt -15.3641 0
f 45/138/7 39/137/7 46/140/7

vt -15.632 0
vt -17.2679 0
vt -15.632 0.333333
f 46/141/8 39/142/8 45/143/8

vt -17.2679 1
f 40/144/8 45/143/8 39/142/8

v 52.9296 9 154.157
vt -10.0097 1
f 40/139/7 45/138/7 47/145/7

vt -10.2776 1
f 47/146/8 45/143/8 40/144/8

v 75.5049 3 154.157
vt -14.3933 0.333333
f 48/147/7 47/145/7 45/138/7

v 75.5049 0 154.157
vt -14.3933 0
f 49/148/7 47/145/7 48/147/7

v 52.9296 0 154.157
vt -10.0097 0
f 47/145/7 49/148/7 50/149/7

vt -10.2776 0
vt -14.6611 0
f 50/150/8 49/151/8 47/146/8

vt -14.6611 0.333333
f 48/152/8 47/146/8 49/151/8

f 45/143/8 47/146/8 48/152/8

v 52.9296 0 170.427
vt 33.0874 0.00616529
vn -1 0 -4.71845e-016
vt 29.928 1.00617
vt 29.928 0.00616529
f 51/153/27 47/154/27 50/155/27

v 52.9296 9 170.427
vt 33.0874 1.00617
f 47/154/27 51/153/27 52/156/27

vt 33.0927 1
vn 1 -0 4.71845e-016
vt 33.0927 0
vt 29.9333 1
f 52/157/28 51/158/28 47/159/28

vt -10 0
v 41.9496 9 170.427
vt -7.86797 1
vt -10 1
f 51/160/17 53/161/17 52/162/17

v 41.9496 0 170.427
vt -7.86797 0
f 53/161/17 51/160/17 54/163/17

vt -8.14556 0
vt -10.2776 0
vt -8.14556 1
f 54/164/18 51/165/18 53/166/18

vt -10.2776 1
f 52/167/18 53/166/18 51/165/18

v 41.9496 0 164.157
vt -33 0
vn 1 0 -9.20985e-015
vt -34.2176 1
vt -34.2176 0
f 55/168/29 53/169/29 54/170/29

v 41.9496 9 164.157
vt -33 1
f 53/169/29 55/168/29 56/171/29

vt -33.0927 0
vn -1 -0 9.20985e-015
vt -33.0927 1
vt -31.8751 0
f 54/172/30 53/173/30 55/174/30

vt -31.8751 1
f 56/175/30 55/174/30 53/173/30

vt -8 0
vn 6.41482e-016 0 -1
v 5.93742 9 164.157
vt -1.00734 1
vt -8 1
f 55/176/31 57/177/31 56/178/31

v 5.93742 0 164.157
vt -1.00734 0
f 57/177/31 55/176/31 58/179/31

vt -1.1529 0
vn -6.41482e-016 -0 1
vt -8.14556 0
vt -1.1529 1
f 58/180/32 55/181/32 57/182/32

vt -8.14556 1
f 56/183/32 57/182/32 55/181/32

v 5.93742 0 177.157
vt 34.5243 -4.43734e-031
vn -1 -3.76998e-016 -5.02769e-016
vt 32 1
vt 32 0
f 59/184/33 57/185/33 58/186/33

v 5.93742 0 190.157
vt 37.0485 0
f 60/187/33 57/185/33 59/184/33

v 5.93742 9 190.157
vt 37.0485 1
f 57/185/33 60/187/33 61/188/33

vt 36.9236 1
vn 1 3.76998e-016 5.02769e-016
vt 36.9236 -2.48711e-016
vt 31.8751 1
f 61/189/34 60/190/34 57/191/34

vt 1 0
vn -6.41699e-016 0 1
v 41.9374 9 190.157
vt 7.99029 1
vt 1 1
f 60/192/35 62/193/35 61/194/35

v 41.9374 0 190.157
vt 7.99029 0
f 62/193/35 60/192/35 63/195/35

vt 8.14319 0
vn 6.41699e-016 -0 -1
vt 1.1529 0
vt 8.14319 1
f 63/196/36 60/197/36 62/198/36

vt 1.1529 1
f 61/199/36 62/198/36 60/197/36

v 41.9374 0 186.698
vt -36.3916 4.0164e-005
vn 1 0 -1.66991e-014
vt -37.0631 1.00004
vt -37.0631 4.0164e-005
f 64/200/37 62/201/37 63/202/37

v 41.9374 9 186.698
vt -36.3916 1.00004
f 62/201/37 64/200/37 65/203/37

vt -36.9236 0
vn -1 -0 1.66991e-014
vt -36.9236 1
vt -36.2521 0
f 63/204/38 62/205/38 64/206/38

vt -36.2521 1
f 65/207/38 64/206/38 62/205/38

vt 8 0
vt 10.1344 1
vt 8 1
f 64/208/13 17/209/13 65/210/13

vt 10.1344 0
f 17/209/13 64/208/13 20/211/13

vt 10.2776 0
vt 8.14319 0
f 20/212/14 64/213/14 17/70/14

vt 8.14319 1
f 65/214/14 17/70/14 64/213/14

vt 36.2521 0
f 20/215/12 17/67/12 18/66/12

vt 34.3994 -2.48711e-016
f 59/216/34 57/191/34 60/190/34

vt 31.8751 -2.48711e-016
f 58/217/34 57/191/34 59/216/34

vt 29.9333 0
f 50/218/28 47/159/28 51/158/28

v 59.864 9 233.58
vt 38.8126 -3.33067e-016
vt 41 -1
vt 41 -3.33067e-016
f 66/219/13 27/220/13 28/221/13

v 59.864 -7.22409e-016 233.58
vt 38.8126 -1
f 27/220/13 66/219/13 67/222/13

vt 11.6241 -8.02677e-017
vt 11.6241 1
vt 13.8114 -8.02345e-017
f 67/223/14 66/224/14 27/225/14

v 59.864 9 241.964
vt -47 1
vn 1 5.45988e-032 1.37761e-015
vt -45.3719 -7.27965e-016
vt -45.3719 1
f 68/226/39 67/227/39 66/228/39

v 59.864 5.77529e-015 241.964
vt -47 -9.86076e-032
f 67/227/39 68/226/39 69/229/39

vt -46.9833 6.41699e-016
vn -1 -5.45988e-032 -1.37761e-015
vt -46.9833 1
vt -45.3553 -8.02677e-017
f 69/230/40 68/231/40 67/232/40

vt 12.7961 1
v 24.864 5.77529e-015 241.964
vt 6 0
vt 12.7961 0
f 68/233/3 70/234/3 69/235/3

v 24.864 9 241.964
vt 6 1
f 70/234/3 68/233/3 71/236/3

vt 11.6241 6.41699e-016
vt 4.82796 6.41699e-016
vt 11.6241 1
f 69/237/4 70/238/4 68/239/4

vt 4.82796 1
f 71/240/4 68/239/4 70/238/4

v 24.864 9 205.964
vt 44 1
vt 50.9903 0
vt 50.9903 1
f 72/241/27 70/242/27 71/243/27

v 24.864 5.77529e-015 205.964
vt 44 0
f 70/242/27 72/241/27 73/244/27

vt 46.9833 1
vt 46.9833 6.41699e-016
vt 39.993 1
f 71/245/28 70/246/28 72/247/28

vt 39.993 6.41699e-016
f 73/248/28 72/247/28 70/246/28

vt -7 1
v 59.864 5.77529e-015 205.964
vt -13.7961 0
vt -7 0
f 72/249/7 74/250/7 73/251/7

v 59.864 9 205.964
vt -13.7961 1
f 74/250/7 72/249/7 75/252/7

vt -4.82796 6.41699e-016
vt -11.6241 6.41699e-016
vt -4.82796 1
f 73/253/8 74/254/8 72/255/8

vt -11.6241 1
f 75/256/8 72/255/8 74/254/8

vt -43.7782 1
vn 1 -9.464e-033 8.07295e-016
vt -41 0
vt -41 1
f 26/257/41 74/258/41 75/259/41

vt -43.7782 -2.88787e-016
f 74/258/41 26/257/41 25/260/41

vt -42.7712 3.52912e-016
vn -1 9.464e-033 -8.07295e-016
vt -42.7712 1
vt -39.993 6.41699e-016
f 25/261/42 26/262/42 74/263/42

vt -11.6241 1
f 26/264/18 25/85/18 24/84/18

vt -45.3553 1
vt -42.7712 3.52912e-016
vt -42.7712 1
f 66/265/23 25/266/23 26/267/23

vt -45.3553 -8.02677e-017
f 25/266/23 66/265/23 67/268/23

f 67/268/24 66/265/24 25/266/24

vt -45.3553 1
f 66/269/40 67/232/40 68/231/40

f 26/267/24 25/266/24 66/265/24

vt -39.993 1
f 75/270/42 74/263/42 26/262/42

vt 13.8114 1
f 28/271/14 27/225/14 66/224/14

f 23/88/20 24/87/20 27/86/20

g Mesh4 Model

v 40.9546 9 95.4723
vt 18.4109 1
vn -1 1.33232e-016 -5.08368e-016
v 40.9546 -5.77529e-015 108.756
vt 20.9903 -2.32472e-018
v 40.9546 9 108.756
vt 20.9903 1
f 76/272/43 77/273/43 78/274/43

v 40.9546 -5.77529e-015 72.756
vt 14 6.16298e-033
f 77/273/43 76/272/43 79/275/43

vt 21.1177 1
vn 1 -1.33232e-016 5.08368e-016
vt 21.1177 -3.54255e-017
vt 18.5383 1
f 78/276/44 77/277/44 76/278/44

vt 11 0
v 65.3563 3 108.756
vt 15.7382 0.333333
vt 11 1
f 77/279/3 80/280/3 78/281/3

v 65.3563 -5.77529e-015 108.756
vt 15.7382 0
f 80/280/3 77/279/3 81/282/3

vt 12.6905 -6.41699e-016
vt 7.95235 -6.41699e-016
vt 12.6905 0.333333
f 81/283/4 77/284/4 80/285/4

vt 7.95235 1
f 78/286/4 80/285/4 77/284/4

v 76.9546 9 108.756
vt 17.9903 1
f 78/281/3 80/280/3 82/287/3

vt 14.9426 1
f 82/288/4 80/285/4 78/286/4

v 70.3563 3 108.756
vt 16.7091 0.333333
f 83/289/3 82/287/3 80/280/3

v 70.3563 -5.77529e-015 108.756
vt 16.7091 0
f 84/290/3 82/287/3 83/289/3

v 76.9546 -5.77529e-015 108.756
vt 17.9903 0
f 82/287/3 84/290/3 85/291/3

vt 14.9426 -6.41699e-016
vt 13.6614 -6.41699e-016
f 85/292/4 84/293/4 82/288/4

vt 13.6614 0.333333
f 83/294/4 82/288/4 84/293/4

f 80/285/4 82/288/4 83/294/4

v 76.9546 -5.77529e-015 72.756
vt -14.0097 0
vn 1 0 3.2085e-016
f 86/295/45 82/113/45 85/114/45

v 76.9546 9 72.756
vt -14.0097 1
f 82/113/45 86/295/45 87/296/45

vt -21.1177 -6.41699e-016
vn -1 -0 -3.2085e-016
vt -21.1177 1
vt -14.1274 -6.41699e-016
f 85/297/46 82/298/46 86/299/46

vt -14.1274 1
f 87/300/46 86/299/46 82/298/46

vt 14.9426 1
vn 1.15565e-015 -1.20596e-015 1
v 70.3563 -5.77529e-015 72.756
vt 13.6614 9.1073e-015
vt 14.9426 9.1073e-015
f 87/301/47 88/302/47 86/303/47

v 70.3563 3 72.756
vt 13.6614 0.333333
f 88/302/47 87/301/47 89/304/47

vn -1.15565e-015 1.20596e-015 -1
f 86/303/48 88/302/48 87/301/48

f 89/304/48 87/301/48 88/302/48

v 65.3563 3 72.756
vt 12.6905 0.333333
f 89/304/47 87/301/47 90/305/47

f 90/305/48 87/301/48 89/304/48

v 56.3457 9 72.756
vt 10.9409 1
f 90/305/47 87/301/47 91/306/47

f 91/306/48 87/301/48 90/305/48

v 65.3563 -5.41434e-015 72.756
vt 12.6905 9.1474e-015
f 91/306/47 92/307/47 90/305/47

v 56.3457 -3.46517e-014 72.756
vt 10.9409 5.8988e-015
f 92/307/47 91/306/47 93/308/47

f 93/308/48 91/306/48 92/307/48

v 56.3457 9 29.4867
vt 7 1
vn -1 -4.55996e-031 -8.00838e-016
vt 15.4018 -3.17533e-015
vt 15.4018 1
f 94/309/49 93/310/49 91/311/49

v 56.3457 -5.77529e-015 29.4867
vt 7 0
f 93/310/49 94/309/49 95/312/49

vt 14.1274 1
vn 1 4.55996e-031 8.00838e-016
vt 14.1274 -3.85019e-015
vt 5.72556 1
f 91/313/50 93/314/50 94/315/50

vt -7.95235 -6.41699e-016
vn 2.25142e-015 1.72296e-031 -1
vt -10.9409 1
vt -10.9409 -3.85019e-015
f 79/316/51 91/317/51 93/318/51

v 40.9546 9 72.756
vt -7.95235 1
f 91/317/51 79/316/51 96/319/51

vn -2.25142e-015 -1.72296e-031 1
f 93/318/52 91/317/52 79/316/52

f 96/319/52 79/316/52 91/317/52

v 40.9546 9 84.1141
vt 16.2055 1
vt 14 1
f 79/275/43 97/320/43 96/321/43

f 79/275/43 76/272/43 97/320/43

vt 14.1274 -3.54255e-017
f 79/322/44 76/278/44 77/277/44

vt 16.3328 1
f 97/323/44 76/278/44 79/322/44

vt 14.1274 1
f 96/324/44 97/323/44 79/322/44

vt 5.72556 -6.41699e-016
f 95/325/50 94/315/50 93/314/50

vt -9.00971 1
vn 4.48759e-016 -5.74749e-017 -1
v 65.3563 -5.77529e-015 29.4867
vt -10.7593 1.15279e-017
vt -9.00971 1.53765e-017
f 94/326/53 98/327/53 95/328/53

v 65.3563 3 29.4867
vt -10.7593 0.333333
f 98/327/53 94/326/53 99/329/53

vt -10.9409 -8.30004e-016
vn -4.48759e-016 5.74749e-017 1
vt -12.6905 -8.30004e-016
vt -10.9409 1
f 95/330/54 98/331/54 94/332/54

vt -12.6905 0.333333
f 99/333/54 94/332/54 98/331/54

v 70.3563 3 29.4867
vt -11.7302 0.333333
f 99/329/53 94/326/53 100/334/53

vt -13.6614 0.333333
f 100/335/54 94/332/54 99/333/54

v 92.3457 9 29.4867
vt -16 1
f 101/336/53 100/334/53 94/326/53

v 92.3457 -5.77529e-015 29.4867
vt -16 -9.86076e-032
f 102/337/53 100/334/53 101/336/53

v 76.3457 -5.77529e-015 29.4867
vt -12.8932 6.83402e-018
f 103/338/53 100/334/53 102/337/53

v 71.3457 -5.77529e-015 29.4867
vt -11.9223 8.96965e-018
f 104/339/53 100/334/53 103/338/53

v 70.3563 -5.77529e-015 29.4867
vt -11.7302 9.39225e-018
f 100/334/53 104/339/53 105/340/53

vt -13.6614 -8.30004e-016
vt -13.8535 -8.30004e-016
f 105/341/54 104/342/54 100/335/54

vt -14.8244 -8.30004e-016
f 103/343/54 100/335/54 104/342/54

vt -17.9312 -8.30004e-016
f 102/344/54 100/335/54 103/343/54

vt -17.9312 1
f 101/345/54 100/335/54 102/344/54

f 94/332/54 100/335/54 101/345/54

v 92.3457 9 72.756
vt -14 1
vn 1 -3.63353e-032 8.00838e-016
vt -5.59818 3.2085e-015
vt -5.59818 1
f 106/346/55 102/347/55 101/348/55

v 92.3457 -3.46517e-014 72.756
vt -14 0
f 102/347/55 106/346/55 107/349/55

vt -14.1274 -3.85019e-015
vn -1 3.63353e-032 -8.00838e-016
vt -14.1274 1
vt -5.72556 -6.41699e-016
f 107/350/56 106/351/56 102/352/56

vt 16 1
vn -2.25142e-015 8.86547e-032 1
vt 13.0114 3.2085e-015
vt 16 0
f 106/353/57 86/354/57 107/355/57

vt 13.0114 1
f 86/354/57 106/353/57 87/356/57

vt 17.9312 -3.85019e-015
vn 2.25142e-015 -8.86547e-032 -1
vt 14.9426 -6.41699e-016
vt 17.9312 1
f 107/357/58 86/358/58 106/359/58

vt 14.9426 1
f 87/360/58 106/359/58 86/358/58

vt -5.72556 1
f 101/361/56 102/352/56 106/351/56

f 90/305/48 92/307/48 91/306/48

g Mesh5 Model

v 146.353 9 112.473
vt 23 1
vn -1 -1.53895e-015 -4.34249e-016
v 146.353 -5.77529e-015 145.473
vt 29.4078 -2.37102e-017
v 146.353 9 145.473
vt 29.4078 1
f 108/362/59 109/363/59 110/364/59

v 146.353 3 132.37
vt 26.8635 0.333333
f 109/363/59 108/362/59 111/365/59

vt 28.2472 1
vn 1 1.53895e-015 4.34249e-016
vt 28.2472 -2.56674e-014
vt 21.8394 1
f 110/366/60 109/367/60 108/368/60

vt 29 0
v 183.353 9 145.473
vt 36.1845 1
vt 29 1
f 109/369/3 112/370/3 110/371/3

v 183.353 -5.77529e-015 145.473
vt 36.1845 0
f 112/370/3 109/369/3 113/372/3

vt 35.6026 -6.41699e-016
vt 28.4182 -6.41699e-016
vt 35.6026 1
f 113/373/4 109/374/4 112/375/4

vt 28.4182 1
f 110/376/4 112/375/4 109/374/4

v 183.353 -6.4972e-015 132.37
vt -51.4557 -7.87994e-017
vt -54 1
vt -54 0
f 114/377/1 112/378/1 113/379/1

v 183.353 3 132.37
vt -51.4557 0.333333
f 112/378/1 114/377/1 115/380/1

vt -28.2472 -6.41699e-016
vt -28.2472 1
vt -25.7029 -7.21911e-016
f 113/381/2 112/382/2 114/383/2

vt -25.7029 0.333333
f 115/384/2 114/383/2 112/382/2

v 183.353 9 112.473
vt -47.5922 1
f 112/378/1 115/380/1 116/385/1

vt -21.8394 1
f 116/386/2 115/384/2 112/382/2

v 183.353 3 127.37
vt -50.4848 0.333333
f 116/385/1 115/380/1 117/387/1

vt -24.732 0.333333
f 117/388/2 115/384/2 116/386/2

v 183.353 -5.77529e-015 112.473
vt -47.5922 3.55869e-018
f 116/385/1 117/387/1 118/389/1

vt -21.8394 -6.41699e-016
f 118/390/2 117/388/2 116/386/2

v 183.353 -6.4972e-015 127.37
vt -50.4848 -7.82602e-017
f 118/389/1 117/387/1 119/391/1

vt -24.732 -7.21911e-016
f 119/392/2 117/388/2 118/390/2

vt -35.6026 -6.41699e-016
v 160.665 9 112.473
vt -31.1971 1
vt -35.6026 1
f 118/393/7 120/394/7 116/395/7

v 160.665 -6.4972e-015 112.473
vt -31.1971 -7.21911e-016
f 120/394/7 118/393/7 121/396/7

f 121/396/8 118/393/8 120/394/8

f 116/395/8 120/394/8 118/393/8

vt 25.7029 0.333333
f 111/397/60 108/368/60 109/367/60

v 146.353 3 127.37
vt 25.8926 0.333333
f 111/365/59 108/362/59 122/398/59

vt 24.732 0.333333
f 122/399/60 108/368/60 111/397/60

v 146.353 -6.4972e-015 127.37
vt 25.8926 -9.09157e-017
f 122/398/59 108/362/59 123/400/59

vt 24.732 -2.57476e-014
f 123/401/60 108/368/60 122/399/60

v 146.353 -5.77529e-015 112.473
vt 23 0
f 123/400/59 108/362/59 124/402/59

vt 21.8394 -2.56674e-014
f 124/403/60 108/368/60 123/401/60

v 146.353 -6.4972e-015 132.37
vt 26.8635 -9.45082e-017
f 125/404/59 109/363/59 111/365/59

vt 25.7029 -2.57476e-014
f 111/397/60 109/367/60 125/405/60

g Mesh6 Model

vt -8.00486 1
vn -7.48823e-016 1.33624e-046 1
v 25.5296 3.08 95.4723
vt -11 0.342222
v 40.9546 3.08 95.4723
vt -8.00486 0.342222
f 76/406/61 126/407/61 127/408/61

v 25.5296 9 95.4723
vt -11 1
f 126/407/61 76/406/61 128/409/61

vt 7.95235 0.342222
vn 7.48823e-016 -1.33624e-046 -1
vt 4.95721 0.342222
vt 7.95235 1
f 127/410/62 126/411/62 76/412/62

vt 4.95721 1
f 128/413/62 76/412/62 126/411/62

g Mesh7 Model

v 25.5296 9 84.1141
vt 11.9951 0
vn 7.48823e-016 -4.45414e-047 -1
v 40.9546 3.08 84.1141
vt 9 -0.657778
v 25.5296 3.08 84.1141
vt 11.9951 -0.657778
f 129/414/63 130/415/63 131/416/63

vt 9 0
f 130/415/63 129/414/63 97/417/63

vt -4.95721 0.342222
vn -7.48823e-016 4.45414e-047 1
vt -7.95235 0.342222
vt -4.95721 1
f 131/418/64 130/419/64 129/420/64

vt -7.95235 1
f 97/421/64 129/420/64 130/419/64

g Mesh8 Model

l 4 2

l 7 4

l 6 7

l 2 6

l 3 2

l 3 5

l 1 3

l 8 1

l 8 7

l 5 8

l 5 6

l 1 4

g Mesh9 Model

l 14 10

l 15 14

l 12 15

l 12 9

l 10 12

l 10 11

l 13 11

l 16 13

l 9 16

l 11 9

l 15 16

l 14 13

g Mesh10 Model

l 62 61

l 62 65

l 63 62

l 63 64

l 63 60

l 60 59

l 60 61

l 61 57

l 58 57

l 59 58

l 58 55

l 54 55

l 54 53

l 51 54

l 51 52

l 51 50

l 50 47

l 49 50

l 49 48

l 48 45

l 45 46

l 39 46

l 39 37

l 39 40

l 40 38

l 40 47

l 52 47

l 52 53

l 53 56

l 55 56

l 57 56

l 37 38

l 35 37

l 35 36

l 35 34

l 34 33

l 34 31

l 31 28

l 36 31

l 36 38

l 38 21

l 22 21

l 44 22

l 44 43

l 43 42

l 42 41

l 37 41

l 22 18

l 23 22

l 27 23

l 30 27

l 30 29

l 29 32

l 32 33

l 27 28

l 67 27

l 25 67

l 74 25

l 74 75

l 73 74

l 73 72

l 70 73

l 69 70

l 69 68

l 67 69

l 67 66

l 26 66

l 75 26

l 72 75

l 71 72

l 68 71

l 66 68

l 66 28

l 28 24

l 24 21

l 24 26

l 23 24

l 23 25

l 25 26

l 21 19

l 19 17

l 18 19

l 18 20

l 20 17

l 64 20

l 64 65

l 65 17

l 70 71

g Mesh11 Model

l 85 82

l 85 84

l 86 85

l 88 86

l 88 89

l 89 90

l 90 92

l 92 93

l 93 95

l 93 91

l 93 79

l 79 77

l 79 96

l 96 97

l 91 96

l 91 94

l 91 87

l 87 82

l 86 87

l 86 107

l 107 102

l 107 106

l 106 101

l 87 106

l 102 101

l 103 102

l 104 103

l 105 104

l 105 100

l 100 99

l 99 98

l 95 98

l 95 94

l 94 101

l 82 78

l 77 78

l 81 77

l 80 81

l 83 80

l 84 83

l 76 78

l 127 76

l 126 127

l 126 128

l 128 76

l 97 76

l 97 129

l 130 97

l 130 131

l 131 129

g Mesh12 Model

l 123 122

l 124 123

l 124 108

l 108 110

l 109 110

l 109 113

l 125 109

l 111 125

l 122 111

l 113 114

l 113 112

l 112 116

l 110 112

l 118 116

l 118 121

l 119 118

l 119 117

l 117 115

l 115 114

l 120 121

l 116 120

