# Alias OBJ Model File
# Exported from SketchUp, (c) 2000-2006 Google, Inc.
# File units = meters

mtllib model5buildingtexturabca.mtl

g Mesh1 Group2 Group1 Model

usemtl Concrete_Block_Layers
v 65.3563 3 124.87
vt -23.2567 11.0728
vn 1 0 4.71845e-016
v 65.3563 5.77529e-015 139.87
vt -60.1662 0
v 65.3563 5.77529e-015 124.87
vt -23.2567 0
f 1/1/1 2/2/1 3/3/1

v 65.3563 3 139.87
vt -60.1662 11.0728
f 2/2/1 1/1/1 4/4/1

vn -1 -0 -4.71845e-016
f 3/3/2 2/2/2 1/1/2

f 4/4/2 1/1/2 2/2/2

vt 60.1662 90.0836
vn 2.49004e-014 1 -2.62109e-015
v 70.3563 3 124.87
vt 23.2567 108.538
vt 23.2567 90.0836
f 4/5/3 5/6/3 1/7/3

v 70.3563 3 127.37
vt 29.4083 108.538
f 5/6/3 4/5/3 6/8/3

vn -2.49004e-014 -1 2.62109e-015
f 1/7/4 5/6/4 4/5/4

vt -60.0557 11.0728
vn 4.71845e-016 0 -1
v 71.6678 10 124.87
vt -75.586 36.9094
vt -72.3589 11.0728
f 1/9/5 7/10/5 5/11/5

v 40.9496 5.77529e-015 124.87
vt 0 0
f 8/12/5 7/10/5 1/9/5

v 40.9496 10 124.87
vt 0 36.9094
f 7/10/5 8/12/5 9/13/5

vn -4.71845e-016 -0 1
f 9/13/6 8/12/6 7/10/6

f 1/9/6 7/10/6 8/12/6

f 5/11/6 7/10/6 1/9/6

v 70.3563 5.77529e-015 124.87
vt -72.3589 0
f 5/11/5 7/10/5 10/14/5

f 10/14/6 7/10/6 5/11/6

v 71.6678 5.77529e-015 124.87
vt -75.586 0
f 10/14/5 7/10/5 11/15/5

f 11/15/6 7/10/6 10/14/6

vt 23.2567 36.9094
vn -1 0 -4.71845e-016
v 71.6678 5.77529e-015 115.419
vt 8.52651e-013 0
vt 23.2567 0
f 7/16/7 12/17/7 11/18/7

v 71.6678 10 115.419
vt 8.52651e-013 36.9094
f 12/17/7 7/16/7 13/19/7

vn 1 -0 4.71845e-016
f 11/18/8 12/17/8 7/16/8

f 13/19/8 7/16/8 12/17/8

v 146.353 10 142.419
vt 66.437 389.04
vn 1.52473e-017 1 5.76425e-019
vt 8.52637e-013 113.379
vt 23.2567 113.379
f 14/20/9 13/21/9 7/22/9

v 146.353 10 115.419
vt 2.27359e-013 389.04
f 13/21/9 14/20/9 15/23/9

vn -1.52473e-017 -1 -5.76425e-019
f 15/23/10 14/20/10 13/21/10

v 146.353 9 142.419
vt -66.437 33.2185
vn 1 0 1.7112e-015
vt 9.40647e-014 36.9094
vt -66.437 36.9094
f 16/24/11 15/25/11 14/26/11

v 146.353 9 115.419
vt 9.40647e-014 33.2185
f 15/25/11 16/24/11 17/27/11

vn -1 -0 -1.7112e-015
f 17/27/12 16/24/12 15/25/12

f 14/26/12 15/25/12 16/24/12

vt 259.36 36.9094
vn 2.86808e-015 -1.07853e-014 1
v 146.353 -7.21911e-016 142.419
vt 259.36 1.05083e-012
vt 259.36 33.2185
f 14/28/13 18/29/13 16/30/13

v 71.6678 10 142.419
vt 75.586 36.9094
f 19/31/13 18/29/13 14/28/13

v 71.6678 5.77529e-015 142.419
vt 75.586 1.07481e-012
f 18/29/13 19/31/13 20/32/13

vn -2.86808e-015 1.07853e-014 -1
f 20/32/14 19/31/14 18/29/14

vt 66.437 36.9094
v 71.6678 5.77529e-015 139.87
vt 60.1662 0
vt 66.437 0
f 19/33/7 21/34/7 20/35/7

v 71.6678 10 139.87
vt 60.1662 36.9094
f 21/34/7 19/33/7 22/36/7

f 20/35/8 21/34/8 19/33/8

f 22/36/8 19/33/8 21/34/8

vt 60.1662 113.379
vt 66.437 113.379
f 14/20/9 22/37/9 19/38/9

f 14/20/9 7/22/9 22/37/9

f 7/22/10 13/21/10 14/20/10

f 22/37/10 7/22/10 14/20/10

v 40.9496 10 139.87
vt 60.1662 -5.6277e-016
f 22/37/9 7/22/9 23/39/9

f 23/39/10 7/22/10 22/37/10

vt 23.2567 -5.6277e-016
f 23/39/9 7/22/9 9/40/9

f 9/40/10 7/22/10 23/39/10

vn -4.71845e-016 0 1
vt 60.0557 11.0728
vt 75.586 36.9094
f 23/13/15 4/41/15 22/42/15

vt 60.0557 0
f 23/13/15 2/43/15 4/41/15

v 40.9496 5.77529e-015 139.87
f 2/43/15 23/13/15 24/12/15

vn 4.71845e-016 -0 -1
f 24/12/16 23/13/16 2/43/16

f 4/41/16 2/43/16 23/13/16

f 22/42/16 4/41/16 23/13/16

v 70.3563 3 139.87
vt 72.3589 11.0728
f 22/42/15 4/41/15 25/44/15

f 25/44/16 4/41/16 22/42/16

v 70.3563 3 132.37
vt 41.7114 108.538
vt 60.1662 108.538
f 26/45/3 4/5/3 25/46/3

v 70.6063 3 127.37
vt 29.4083 109.461
f 27/47/3 4/5/3 26/45/3

f 6/8/3 4/5/3 27/47/3

f 6/8/4 4/5/4 5/6/4

f 27/47/4 4/5/4 6/8/4

f 26/45/4 4/5/4 27/47/4

f 25/46/4 4/5/4 26/45/4

v 70.3563 2.5 132.37
vt 41.7114 9.22736
vn -1 3.85019e-015 -2.01192e-015
vt 60.1662 11.0728
vt 41.7114 11.0728
f 28/48/17 25/49/17 26/50/17

v 70.3563 5.77529e-015 132.37
vt 41.7114 4.17894e-013
f 29/51/17 25/49/17 28/48/17

v 70.3563 5.77529e-015 139.87
vt 60.1662 4.17894e-013
f 25/49/17 29/51/17 30/52/17

vn 1 -3.85019e-015 2.01192e-015
f 30/52/18 29/51/18 25/49/18

f 28/48/18 25/49/18 29/51/18

f 26/50/18 25/49/18 28/48/18

vt 41.7114 11.0728
v 70.3563 2.5 127.37
vt 29.4083 9.22736
vt 41.7114 9.22736
f 26/53/7 31/54/7 28/55/7

vt 29.4083 11.0728
f 31/54/7 26/53/7 6/56/7

f 28/55/8 31/54/8 26/53/8

vt -29.4083 108.538
vn 0 -1 0
v 70.6063 2.5 132.37
vt -41.7114 109.461
vt -41.7114 108.538
f 31/57/19 32/58/19 28/59/19

v 70.6063 2.5 127.37
vt -29.4083 109.461
f 32/58/19 31/57/19 33/60/19

vn -0 1 -0
f 33/60/20 31/57/20 32/58/20

vt 72.3589 9.22736
vn 1.16569e-018 2.31068e-014 1
v 146.353 -7.21911e-016 127.37
vt 259.36 -1.04328e-012
vt 72.974 9.22736
f 31/61/21 34/62/21 33/63/21

v 70.3563 5.77529e-015 127.37
vt 72.3589 -1.0193e-012
f 34/62/21 31/61/21 35/64/21

vn -1.16569e-018 -2.31068e-014 -1
f 35/64/22 31/61/22 34/62/22

vt 29.4083 9.22736
vn -1 3.85019e-015 4.14839e-015
vt 23.2567 4.17894e-013
vt 29.4083 4.17894e-013
f 31/65/23 10/66/23 35/67/23

vt 23.2567 11.0728
f 10/66/23 31/65/23 5/68/23

vn 1 -3.85019e-015 -4.14839e-015
f 35/67/24 10/66/24 31/65/24

f 5/68/24 31/65/24 10/66/24

vt 29.4083 11.0728
f 5/68/23 31/65/23 6/69/23

f 6/69/24 31/65/24 5/68/24

f 6/56/8 26/53/8 31/54/8

vt 72.974 9.22736
vn -4.71845e-016 9.24047e-014 1
vt 72.3589 11.0728
vt 72.3589 9.22736
f 33/70/25 6/71/25 31/72/25

vt 72.974 11.0728
f 6/71/25 33/70/25 27/73/25

vn 4.71845e-016 -9.24047e-014 -1
f 31/72/26 6/71/26 33/70/26

f 27/73/26 33/70/26 6/71/26

vt 72.974 11.0728
f 33/63/21 34/62/21 27/74/21

f 33/63/22 34/62/22 31/61/22

f 27/74/22 34/62/22 33/63/22

v 146.353 3 127.37
vt 259.36 11.0728
f 27/74/21 34/62/21 36/75/21

f 36/75/22 34/62/22 27/74/22

vt 29.4083 109.461
vn -3.33569e-015 1 -5.12655e-030
v 146.353 3 132.37
vt 41.7114 389.04
vt 29.4083 389.04
f 27/76/27 37/77/27 36/78/27

v 70.6063 3 132.37
vt 41.7114 109.461
f 37/77/27 27/76/27 38/79/27

vn 3.33569e-015 -1 5.12655e-030
f 36/78/28 37/77/28 27/76/28

f 38/79/28 27/76/28 37/77/28

vt 41.7114 109.461
f 38/80/3 27/47/3 26/45/3

f 26/45/4 27/47/4 38/80/4

vt -41.7114 9.22736
vt -29.4083 11.0728
vt -41.7114 11.0728
f 32/81/1 27/82/1 38/83/1

vt -29.4083 9.22736
f 27/82/1 32/81/1 33/84/1

f 33/84/2 32/81/2 27/82/2

f 38/83/2 27/82/2 32/81/2

vt -259.36 11.0728
vn 1.3593e-016 -2.54215e-014 -1
vt -72.974 9.22736
vt -72.974 11.0728
f 37/85/29 32/86/29 38/87/29

v 146.353 -7.21911e-016 132.37
vt -259.36 -1.61453e-012
f 39/88/29 32/86/29 37/85/29

vt -72.3589 9.22736
f 39/88/29 28/89/29 32/86/29

vt -72.3589 -1.59055e-012
f 28/89/29 39/88/29 29/90/29

vn -1.3593e-016 2.54215e-014 1
f 29/90/30 39/88/30 28/89/30

f 32/86/30 28/89/30 39/88/30

f 28/59/20 32/58/20 31/57/20

vt -72.3589 9.22736
vn 4.71845e-016 -4.62023e-014 -1
vt -72.974 11.0728
vt -72.974 9.22736
f 28/91/31 38/92/31 32/93/31

vt -72.3589 11.0728
f 38/92/31 28/91/31 26/94/31

vn -4.71845e-016 4.62023e-014 1
f 26/94/32 28/91/32 38/92/32

f 32/93/32 38/92/32 28/91/32

f 38/87/30 32/86/30 37/85/30

f 37/85/30 32/86/30 39/88/30

vt 75.586 0
vt 72.3589 0
f 21/95/15 25/44/15 30/96/15

f 22/42/15 25/44/15 21/95/15

f 21/95/16 25/44/16 22/42/16

f 30/96/16 25/44/16 21/95/16

f 19/38/10 22/37/10 14/20/10

f 14/28/14 18/29/14 19/31/14

f 16/30/14 18/29/14 14/28/14

v 146.353 -7.21911e-016 115.419
vt -259.36 -2.39808e-014
vn -9.27935e-016 3.95801e-031 -1
vt -259.36 36.9094
vt -259.36 33.2185
f 40/97/33 15/98/33 17/99/33

vt -75.586 5.69036e-043
f 12/100/33 15/98/33 40/97/33

f 15/98/33 12/100/33 13/10/33

vn 9.27935e-016 -3.95801e-031 1
f 13/10/34 12/100/34 15/98/34

f 40/97/34 15/98/34 12/100/34

f 17/99/34 15/98/34 40/97/34

vt -60.0557 0
f 3/101/5 8/12/5 1/9/5

f 1/9/6 8/12/6 3/101/6

g Mesh2 Group2 Group1 Model

l 40 17

l 12 40

l 12 13

l 11 12

l 11 7

l 10 11

l 10 5

l 10 35

l 34 35

l 36 34

l 37 36

l 39 37

l 39 29

l 29 28

l 29 30

l 30 25

l 21 30

l 21 22

l 20 21

l 20 19

l 18 20

l 18 16

l 16 14

l 16 17

l 17 15

l 15 14

l 13 15

l 7 13

l 9 7

l 8 9

l 8 3

l 1 3

l 5 1

l 5 6

l 6 31

l 6 26

l 6 27

l 36 27

l 27 38

l 27 33

l 33 32

l 31 33

l 31 35

l 31 28

l 28 26

l 28 32

l 32 38

l 37 38

l 26 38

l 26 25

l 25 4

l 4 2

l 1 4

l 2 3

l 2 24

l 24 23

l 22 23

l 19 22

l 14 19

l 9 23

g Mesh3 Group3 Group1 Model

v 9.63962 10 155.987
vt 98.4252 36.9094
vn -1 1.29944e-016 -4.67843e-016
v 9.63962 -5.77529e-015 115.987
v 9.63962 -5.77529e-015 155.987
vt 98.4252 -7.67658e-032
f 41/102/35 42/12/35 43/103/35

v 9.63962 10 115.987
vt 0 36.9094
f 42/12/35 41/102/35 44/104/35

vn 1 -1.29944e-016 4.67843e-016
f 43/103/36 42/12/36 41/102/36

f 44/104/36 41/102/36 42/12/36

vt 98.4252 0
vn 0 1 -0
v 40.9496 10 115.987
vt 0 115.563
f 41/105/37 45/106/37 44/12/37

v 40.9496 10 124.87
vt 21.8586 115.563
f 45/106/37 41/105/37 46/107/37

vn -0 -1 0
f 44/12/38 45/106/38 41/105/38

vt -77.0423 36.9094
f 45/108/5 42/12/5 44/104/5

v 40.9496 -5.77529e-015 115.987
vt -77.0423 0
f 42/12/5 45/108/5 47/109/5

f 44/104/6 42/12/6 45/108/6

f 47/109/6 45/108/6 42/12/6

vt 1.37353e-014 36.9094
vn 1 0 6.50128e-016
v 40.9496 -5.77529e-015 124.87
vt -21.8586 0
vt 1.37353e-014 0
f 45/110/39 48/111/39 47/112/39

vt -21.8586 36.9094
f 48/111/39 45/110/39 46/113/39

vn -1 -0 -6.50128e-016
f 47/112/40 48/111/40 45/110/40

f 46/113/40 45/110/40 48/111/40

f 46/107/38 41/105/38 45/106/38

v 40.9496 10 139.87
vt 58.768 115.563
f 46/107/37 41/105/37 49/114/37

f 49/114/38 41/105/38 46/107/38

v 40.9496 10 155.987
vt 98.4252 115.563
f 49/114/37 41/105/37 50/115/37

f 50/115/38 41/105/38 49/114/38

v 40.9496 -5.77529e-015 155.987
vt 77.0423 0
vt 77.0423 36.9094
f 41/104/15 51/116/15 50/117/15

f 51/116/15 41/104/15 43/12/15

f 43/12/16 41/104/16 51/116/16

f 50/117/16 51/116/16 41/104/16

vt -98.4252 0
vn 1 0 -3.58342e-016
vt -58.768 36.9094
vt -98.4252 36.9094
f 51/118/41 49/119/41 50/120/41

v 40.9496 -5.77529e-015 139.87
vt -58.768 0
f 49/119/41 51/118/41 52/121/41

vn -1 -0 3.58342e-016
f 52/121/42 51/118/42 49/119/42

f 50/120/42 49/119/42 51/118/42

g Mesh4 Group3 Group1 Model

l 44 41

l 45 44

l 47 45

l 47 42

l 48 47

l 48 46

l 49 46

l 50 49

l 50 41

l 51 50

l 51 52

l 51 43

l 43 41

l 42 43

l 42 44

l 52 49

l 46 45

